<svg xmlns="http://www.w3.org/2000/svg" width="50.992" height="48.232" viewBox="0 0 50.992 48.232"><g id="Grupo_23138" data-name="Grupo 23138" transform="translate(-81.345 -639.344)"><path id="blob2" d="M1.064-49.234c1.733,9.21-7.3,18.1-16.141,23.664S-32.5-17.819-38.833-21.694c-6.338-3.921-10.35-13.907-7.8-24.211,2.553-10.35,11.673-20.974,22.524-21.521S-.715-58.445,1.064-49.234Z" transform="translate(128.754 706.793)" fill="#c4f6dc" opacity="0.6"></path><g id="Logo_Horizontal" data-name="Logo Horizontal" transform="translate(84.365 640.621)"><g id="Grupo_20669" data-name="Grupo 20669" transform="translate(0 0)"><g id="Grupo_20668" data-name="Grupo 20668"><path id="Trazado_27419" data-name="Trazado 27419" d="M24.461,6.686c-2.409,0-4.361-.016-4.361-2.424a4.361,4.361,0,0,1,8.722,0C28.822,6.67,26.87,6.686,24.461,6.686Zm0-5.438a3.013,3.013,0,0,0-3.013,3.013C21.448,5.925,22.8,6,24.461,6s3.013-.078,3.013-1.742a3.013,3.013,0,0,0-3.013-3.013Z" transform="translate(-0.74 0.1)" fill="#1eeb00" stroke="#1eeb00" stroke-width="0.5"></path><path id="Trazado_27422" data-name="Trazado 27422" d="M27.432,17.788a27.476,27.476,0,0,0-3.707-.282,27.476,27.476,0,0,0-3.707.282,4.532,4.532,0,0,0-3.151,1.976,3.34,3.34,0,0,0,.093,3.012c1.39,3.2,4.912,5.177,6.858,5.177s5.375-1.882,6.765-5.082a3.34,3.34,0,0,0,.093-3.012A4.534,4.534,0,0,0,27.432,17.788Zm1.761,4.424c-1.2,2.635-4.17,4.329-5.468,4.329s-4.263-1.6-5.468-4.329a1.908,1.908,0,0,1-.093-1.694A3.048,3.048,0,0,1,20.3,19.294a26.473,26.473,0,0,1,3.429-.282,26.473,26.473,0,0,1,3.429.282,3.048,3.048,0,0,1,2.132,1.224A1.908,1.908,0,0,1,29.192,22.212ZM45.967,5.553A14.347,14.347,0,0,0,41.426,4.8a13.227,13.227,0,0,0-8.619,3.294,28.675,28.675,0,0,0-17.979,0A13.226,13.226,0,0,0,6.117,4.8a14.347,14.347,0,0,0-4.541.753L0,6.024l.649,1.6a35.459,35.459,0,0,1,1.3,3.577L2.5,12.988a13.075,13.075,0,0,0,2.78,5.929,31.6,31.6,0,0,0-1.3,9.035,37.533,37.533,0,0,0,2.41,14.4,11.873,11.873,0,0,0,2.78,4.235l.834.753.927-.565,1.483-.941,1.112.847,1.112.847.927-1.035a13.1,13.1,0,0,0,1.853-2.824,29.485,29.485,0,0,0,12.789,0,13.1,13.1,0,0,0,1.853,2.824l.927,1.035,1.112-.847,1.112-.847,1.483.941.927.565.834-.753a11.873,11.873,0,0,0,2.78-4.235c1.668-3.765,2.41-8.565,2.41-14.4a31.6,31.6,0,0,0-1.3-9.035,13.075,13.075,0,0,0,2.78-5.929l.556-1.788a35.457,35.457,0,0,1,1.3-3.577l.649-1.506Zm-2.595,4.988-.556,1.882a11.477,11.477,0,0,1-2.039,4.706,25.361,25.361,0,0,0-2.688-5.177,7.809,7.809,0,0,1,3.336-2.729l-.463-1.412c-3.522,1.694-4.263,3.765-4.356,3.859v.376l.278.376a27.694,27.694,0,0,1,4.634,15.624c0,10.635-2.966,15.153-3.985,16.377l-2.317-1.506L33.363,44.33a7.361,7.361,0,0,1-1.2-1.976l1.853-.659-.649-1.412a27.4,27.4,0,0,1-19.184,0l-.556,1.412,1.853.659a7.361,7.361,0,0,1-1.2,1.976l-1.853-1.412-2.224,1.506C9.175,43.2,6.209,38.683,6.209,28.047a27.694,27.694,0,0,1,4.634-15.624l.278-.376-.185-.376c0-.094-.834-2.165-4.356-3.859L5.931,9.224a7.809,7.809,0,0,1,3.336,2.729A25.361,25.361,0,0,0,6.58,17.13a11.477,11.477,0,0,1-2.039-4.706l-.556-1.882c-.371-1.318-.834-2.353-1.112-3.106a10.82,10.82,0,0,1,10.75,2.824l.371.376.463-.188a25.592,25.592,0,0,1,9.082-1.6,25.592,25.592,0,0,1,9.082,1.6l.463.188.371-.376A10.82,10.82,0,0,1,44.484,7.435C44.206,8.188,43.742,9.224,43.372,10.541ZM22.983,21.083v.659a1.159,1.159,0,1,1-2.317,0v-.659a1.159,1.159,0,1,1,2.317,0ZM16.4,17.318a1.668,1.668,0,1,1-1.668-1.694,1.656,1.656,0,0,1,1.214.529,1.71,1.71,0,0,1,.455,1.259Zm10.472,3.765v.659a1.159,1.159,0,1,1-2.317,0v-.659a1.159,1.159,0,1,1,2.317,0Zm7.6-3.765a1.668,1.668,0,1,1-1.668-1.694,1.656,1.656,0,0,1,1.214.529,1.71,1.71,0,0,1,.455,1.259Z" transform="translate(0 -0.915)" fill="#004b40" stroke="#004b40" stroke-width="0.5"></path></g></g></g></g></svg>