<svg xmlns="http://www.w3.org/2000/svg" xmlns:xlink="http://www.w3.org/1999/xlink" width="416" height="343" viewBox="0 0 416 343"><defs><clipPath id="clip-path"><rect id="Rect&#xE1;ngulo_21332" data-name="Rect&#xE1;ngulo 21332" width="416" height="343" transform="translate(842 827)" fill="#fff" stroke="#707070" stroke-width="1"></rect></clipPath><linearGradient id="linear-gradient" x1="0.5" y1="0.329" x2="0.5" y2="0.943" gradientUnits="objectBoundingBox"><stop offset="0.28" stop-color="#1eeb00"></stop><stop offset="0.51" stop-color="#1ee700"></stop><stop offset="0.73" stop-color="#1edb00"></stop><stop offset="0.95" stop-color="#1ec800"></stop><stop offset="1" stop-color="#1ec200"></stop></linearGradient></defs><g id="Somos_Coink" data-name="Somos Coink" transform="translate(-842 -827)" clip-path="url(#clip-path)"><path id="blob2" d="M326.433,198.636c11.668-62.025-49.13-121.9-108.7-159.362s-117.3-52.2-159.978-26.1c-42.681,26.407-69.7,93.652-52.507,163.046,17.2,69.7,78.608,141.245,151.688,144.93S314.458,260.661,326.433,198.636Z" transform="matrix(-0.799, 0.602, -0.602, -0.799, 1305.084, 1055.675)" fill="#edfcf5"></path><path id="blob2-2" data-name="blob2" d="M336.819,126.2c12.04,63.812-50.693,125.413-112.158,163.953S103.632,343.856,59.593,317c-44.039-27.167-71.92-96.35-54.178-167.743C23.157,77.552,86.523,3.947,161.929.156S324.462,62.388,336.819,126.2Z" transform="translate(1203.733 1138.435) rotate(170)" fill="none" stroke="#c4f6dc" stroke-width="3"></path><g id="Logo_Vertcial" data-name="Logo Vertcial" transform="translate(1022.586 966.597)"><g id="Grupo_20664" data-name="Grupo 20664" transform="translate(-74.586 -91.597)"><g id="Grupo_20662" data-name="Grupo 20662" transform="translate(0 204.118)"><path id="Trazado_27405" data-name="Trazado 27405" d="M126.809,147.815h-16.4L97.1,125.821H96.9v21.994H83.4V107.3H96.9v13.891H97.1L110.024,107.3H126.23L110.6,122.927Z" transform="translate(77.578 -104.213)" fill="#004b40"></path><g id="Grupo_20661" data-name="Grupo 20661"><path id="Trazado_27406" data-name="Trazado 27406" d="M84.924,148.377V126.19c0-4.437-1.158-8.489-5.981-8.489s-7.138,4.052-7.138,8.682v21.994H58.3V107.862H71.226v3.666A16.4,16.4,0,0,1,83.381,106.7c10.8,0,14.855,8.489,14.855,16.592v25.081Z" transform="translate(54.253 -104.775)" fill="#004b40"></path><g id="Grupo_20660" data-name="Grupo 20660"><path id="Trazado_27407" data-name="Trazado 27407" d="M47.3,147.565V110.523L60.033,105.7v46.882Z" transform="translate(44.031 -105.7)" fill="#004b40"></path><g id="Grupo_20659" data-name="Grupo 20659" transform="translate(0 1.929)"><path id="Trazado_27408" data-name="Trazado 27408" d="M43.08,149.723c-12.154,0-22.38-8.489-22.38-21.608S30.925,106.7,43.08,106.7s22.573,7.91,22.573,21.222S55.427,149.723,43.08,149.723Zm0-32.026c-6.174,0-9.453,5.209-9.453,10.418s3.28,10.418,9.646,10.418,9.646-5.209,9.646-10.418S49.446,117.7,43.08,117.7Z" transform="translate(19.312 -106.699)" fill="#004b40"></path><path id="Trazado_27409" data-name="Trazado 27409" d="M29.554,135.061a10.418,10.418,0,1,1,0-13.7l7.331-8.3a21.608,21.608,0,1,0,0,30.483Z" transform="translate(0.039 -106.7)" fill="#004b40"></path></g></g></g></g><g id="Grupo_20663" data-name="Grupo 20663" transform="translate(18.597)"><ellipse id="Elipse_1803" data-name="Elipse 1803" cx="15.241" cy="15.241" rx="15.241" ry="15.241" transform="translate(68.49 2.894)" fill="#fbb040"></ellipse><path id="Trazado_27410" data-name="Trazado 27410" d="M61.642,35.785A17.942,17.942,0,1,1,79.585,17.842,17.942,17.942,0,0,1,61.642,35.785Zm0-30.483a12.54,12.54,0,1,0,12.54,12.54A12.54,12.54,0,0,0,61.642,5.3Z" transform="translate(22.089 0.1)" fill="#004b40"></path><path id="Trazado_27411" data-name="Trazado 27411" d="M51.529,145.993l-8.489,5.4L41.5,150.238c-.772-.579-17.364-15.048-17.364-62.316A105.532,105.532,0,0,1,29.149,55.7c-6.367-6.752-8.1-12.926-10.225-20.643l-1.736-6.367a124.435,124.435,0,0,0-4.63-13.119l-1.158-2.7,2.894-.965A48.618,48.618,0,0,1,29.342,9.4a44.181,44.181,0,0,1,29.9,11.769,99.937,99.937,0,0,1,64.824,0,44.181,44.181,0,0,1,29.9-11.576A48.618,48.618,0,0,1,169.023,12.1l2.894.965-1.158,2.7A124.438,124.438,0,0,0,165.936,28.5L164.2,34.867c-2.122,7.717-3.666,13.7-10.225,20.643a105.532,105.532,0,0,1,5.016,32.219c0,47.46-16.592,61.737-17.364,62.316l-1.543,1.158-8.489-5.4L124.07,151.4l-1.543-1.929a40.9,40.9,0,0,1-6.752-11,103.024,103.024,0,0,1-48.232,0,40.9,40.9,0,0,1-6.752,11L59.246,151.4Z" transform="translate(-7.927 8.928)" fill="url(#linear-gradient)"></path><path id="Trazado_27412" data-name="Trazado 27412" d="M63.959,63.654c5.788,0,17.171-6.56,21.608-16.592s-5.209-13.119-9.068-13.7a97.043,97.043,0,0,0-12.54-.965,97.042,97.042,0,0,0-12.54.965c-3.859.772-13.5,3.859-9.068,13.7S58.171,63.654,63.959,63.654Z" transform="translate(19.772 30.302)" fill="#afff6a"></path><path id="Trazado_27413" data-name="Trazado 27413" d="M106.257,53.338a98.392,98.392,0,0,0-13.119-.965,98.2,98.2,0,0,0-12.926.965c-2.508.386-8.682,2.122-11.19,6.945A11.576,11.576,0,0,0,69.215,70.7c5.016,11.19,17.364,18.135,24.116,18.135s18.907-6.945,24.116-18.135a11.576,11.576,0,0,0,.193-10.418C114.939,55.46,108.765,53.917,106.257,53.338Zm6.174,15.241c-4.244,9.261-14.855,15.048-19.1,15.048s-15.048-5.595-19.1-15.048a6.56,6.56,0,0,1-.386-5.788c1.158-2.315,4.63-3.666,7.524-4.244a94.725,94.725,0,0,1,12.155-.965,94.918,94.918,0,0,1,12.154.965c2.894.579,6.367,1.929,7.524,4.244a6.56,6.56,0,0,1-.772,5.981ZM171.467,10.7A51.126,51.126,0,0,0,155.647,8a46.882,46.882,0,0,0-30.676,11.576,102.638,102.638,0,0,0-63.473,0A46.882,46.882,0,0,0,31.015,8.193a51.126,51.126,0,0,0-15.82,2.7L9.6,12.63l2.508,5.4a121.738,121.738,0,0,1,4.63,12.54l1.736,6.367c1.929,7.331,3.666,13.7,9.839,20.45a108.233,108.233,0,0,0-4.63,31.447c0,20.065,2.894,36.849,8.682,49.776s9.068,14.084,9.646,14.663l2.894,2.508,3.28-2.122,5.209-3.28,4.051,3.087,3.859,2.894,3.087-3.666a45.53,45.53,0,0,0,6.367-9.646,105.533,105.533,0,0,0,44.952,0,45.53,45.53,0,0,0,6.367,9.646l3.28,3.859,3.859-2.894,4.051-3.087,5.209,3.28,3.28,2.122,2.894-2.508c.579-.386,5.209-4.437,9.646-14.663s8.682-29.711,8.682-49.776a108.233,108.233,0,0,0-4.63-31.447c5.981-6.945,7.717-13.312,9.839-20.45l1.736-6.367a121.731,121.731,0,0,1,4.63-12.54l2.508-5.4ZM162.4,28.065c-.772,2.315-1.351,4.63-1.929,6.56-1.736,6.56-3.087,11.19-7.138,16.206a87.588,87.588,0,0,0-9.261-18.135c1.158-1.929,4.437-5.788,11.962-9.453l-2.315-4.823c-12.347,5.788-15.241,13.119-15.241,13.5l-.579,1.35.965,1.158c.193.193,16.206,21.222,16.206,54.213,0,36.849-10.418,52.669-14.084,56.914l-8.1-5.016-6.367,4.823a25.66,25.66,0,0,1-4.244-6.753l6.56-2.122-1.736-5.016a98.008,98.008,0,0,1-67.718,0l-1.736,5.016,6.56,2.122a25.659,25.659,0,0,1-4.244,6.945l-6.367-4.823-8.1,5.209C41.819,141.507,31.4,126.072,31.4,89.03c0-32.8,16.013-53.827,16.206-54.213l.965-1.158-.579-1.35c-.193-.386-2.894-7.717-15.241-13.5l-2.315,4.823C37.96,27.1,41.24,31.151,42.4,33.081a87.59,87.59,0,0,0-9.261,18.135C29.086,46.2,27.735,41.57,26,35.01c-.579-2.122-1.158-4.244-1.929-6.56s-2.894-8.3-3.859-10.611a38.586,38.586,0,0,1,38.007,9.839l1.158,1.351,1.736-.579a94.342,94.342,0,0,1,64.245,0l1.736.579,1.158-1.35a38.586,38.586,0,0,1,38.007-10.032c-.965,2.315-2.508,6.174-3.859,10.611ZM90.437,64.914v2.315a4.051,4.051,0,1,1-8.1,0V64.914a4.052,4.052,0,0,1,8.1,0ZM67.286,51.988A5.788,5.788,0,1,1,61.5,46.2,5.788,5.788,0,0,1,67.286,51.988Zm36.849,12.926v2.315a4.052,4.052,0,0,1-8.1,0V64.914a4.052,4.052,0,0,1,8.1,0Zm26.817-12.926a5.788,5.788,0,1,1-5.788-5.788A5.788,5.788,0,0,1,130.952,51.988Z" transform="translate(-9.6 7.627)" fill="#004b40"></path></g></g></g></g></svg>